<?xml version="1.0" encoding="utf-8"?>
<!-- Generator: Adobe Illustrator 27.8.0, SVG Export Plug-In . SVG Version: 6.00 Build 0)  -->
<svg version="1.1" id="Layer_1" xmlns="http://www.w3.org/2000/svg" xmlns:xlink="http://www.w3.org/1999/xlink" x="0px" y="0px"
	 viewBox="0 0 569.1 200.1" style="enable-background:new 0 0 569.1 200.1;" xml:space="preserve">
<style type="text/css">
	.st0{fill:#FFFFFF;}
	.st1{fill:none;}
</style>
<polygon class="st0" points="109.6,44.3 109.7,44.3 109.6,44.3 "/>
<path class="st0" d="M147.4,82.1l37.2-37.2c-2.1-3.2-4.5-6.3-6.9-9.2l-30.7,30.7l-21.3-21.7l29.1-29c-3.4-2.1-6.8-4.1-10.5-5.8
	l-34.5,34.5C109.7,44.3,147.4,82.1,147.4,82.1z"/>
<path class="st0" d="M59.8,82.4l76.1-76.1c-5.2-1.9-10.5-3.4-16.1-4.5L49.5,72.1L59.8,82.4z"/>
<path class="st0" d="M179.1,113.8l21.8-21.8c-0.5-5.8-1.4-11.5-2.9-17l-28.9,28.9L179.1,113.8L179.1,113.8z"/>
<line class="st1" x1="153.3" y1="88" x2="153.3" y2="88"/>
<path class="st0" d="M163.2,97.9l32-32c-1.7-4.7-3.8-9.3-6.2-13.7L153.3,88L163.2,97.9L163.2,97.9z"/>
<path class="st0" d="M196.3,131L196.3,131c2.9-8.7,4.5-18,4.8-27.6l-16.2,16.2L196.3,131L196.3,131z"/>
<path class="st0" d="M43.6,66.3L43.6,66.3l65.8-65.8c-2.9-0.2-5.9-0.4-8.8-0.4c-3.8,0-7.6,0.2-11.2,0.6L33.7,56.3L43.6,66.3z"/>
<path class="st0" d="M146.9,54.6l25-25c-3.3-3.3-6.7-6.3-10.4-9.1l-24.3,24.3L146.9,54.6z"/>
<path class="st0" d="M0,100c0,55.3,45,100,100.6,100c18.7,0,36.2-5.1,51.2-13.9L14.3,48.7C5.2,63.7,0,81.3,0,100z M61.3,109.3
	L61.3,109.3l0.1,0.2c1.7,7.3,5.3,13.9,10.6,19.1s11.8,8.9,19.1,10.6l0.2,0.1l9.3,9.3l-2.1-0.1c-12.3-0.4-23.9-5.4-32.5-14
	c-8.7-8.7-13.6-20.2-14-32.5l-0.1-2.1L61.3,109.3L61.3,109.3z M33.8,83.6L33.8,83.6l0.4-1.4l6.9,6.9L41,89.6
	c-3.6,19.5,2.6,39.5,16.5,53.4s33.9,20.1,53.4,16.5l0.4-0.1l6.9,6.9l-1.4,0.4c-5.5,1.4-11.2,2.1-16.8,2.1c-18,0-35.6-7-48.5-19.9
	C34.8,131.9,27.9,106.9,33.8,83.6L33.8,83.6z M18.5,66.5l6.4,6.4l-0.2,0.5c-10.4,29.1-3.1,61.9,18.7,83.6
	c21.8,21.8,54.6,29.1,83.6,18.7l0.5-0.2l6.4,6.4l-1.2,0.5c-10.7,4.3-21.8,6.3-32.9,6.3c-23,0-45.5-9-62.4-25.9
	c-25-25-32.7-62.4-19.5-95.3C18,67.7,18.5,66.5,18.5,66.5z"/>
<path class="st0" d="M65.7,88.3l93.2,93.2c3.7-2.6,7.2-5.5,10.5-8.5L75.2,78.8L65.7,88.3z"/>
<path class="st0" d="M74.9,3.3c-22.8,6-42.5,19.8-56,38.3l8.8,8.8L74.9,3.3z"/>
<path class="st0" d="M95.1,58.9l92.1,92.1c2.2-3.7,4.1-7.5,5.9-11.4l-89.3-89.3L95.1,58.9L95.1,58.9z"/>
<path class="st0" d="M81.1,72.9l94.2,94.2c2.6-2.9,5-5.9,7.3-9L89.2,64.8L81.1,72.9z"/>
<path class="st0" d="M258.6,79.5c3.7,3.7,8,6.7,12.8,8.7c4.9,2.1,10.3,3.1,16.1,3.1s11-1,15.5-2.9c4.6-1.9,8.5-4.5,11.7-7.7
	c3.2-3.2,5.5-6.8,6.9-10.6L308.4,64c-1.5,4-4.1,7.4-7.7,10c-3.6,2.6-8,3.9-13.2,3.9s-9.6-1.2-13.5-3.6c-3.8-2.4-6.9-5.6-9-9.8
	c-2.1-4.2-3.1-9.2-3.1-14.8s1-10.5,3.1-14.7c2.2-4.2,5.2-7.4,9-9.8c3.9-2.4,8.4-3.6,13.5-3.6s9.5,1.3,13.2,4
	c3.6,2.6,6.2,5.9,7.7,9.9l13.3-6.1c-1.4-3.8-3.7-7.3-6.9-10.5c-3.2-3.2-7.1-5.8-11.7-7.8c-4.6-1.9-9.8-2.9-15.5-2.9
	s-11.2,1-16.1,3.1c-4.9,2-9.2,4.9-12.9,8.6c-3.6,3.7-6.4,8-8.5,13.2c-2,5-2.9,10.5-2.9,16.5s1,11.5,3,16.5S255,75.7,258.6,79.5
	L258.6,79.5z"/>
<rect x="332.5" y="8.4" class="st0" width="14.2" height="81.6"/>
<rect x="359.9" y="31.4" class="st0" width="14.2" height="58.7"/>
<rect x="359.9" y="9.7" class="st0" width="14.2" height="15.1"/>
<path class="st0" d="M435.4,38.6c-2.5-2.7-5.5-4.8-9-6.3c-3.5-1.5-7.5-2.3-12.2-2.3c-5.5,0-10.5,1.3-15,4
	c-4.4,2.7-7.9,6.3-10.5,10.9c-2.5,4.5-3.8,9.7-3.8,15.6s1.3,10.9,3.8,15.5c2.5,4.7,6.1,8.4,10.7,11.1s9.9,4.1,16,4.1
	c4.1,0,7.8-0.6,11.1-1.8c3.4-1.2,6.3-2.9,8.8-5.1c2.5-2.2,4.3-4.6,5.4-7.4l-11.5-5.6c-1.3,2.3-3.1,4.1-5.4,5.5
	c-2.2,1.4-5,2.1-8.3,2.1s-6.2-0.8-8.7-2.3c-2.5-1.5-4.4-3.6-5.6-6.4c-0.8-1.7-1.2-3.6-1.4-5.6h42.6c0.3-0.8,0.5-1.7,0.5-2.8
	c0.1-1.1,0.2-2.1,0.2-3.1c0-4-0.6-7.6-2-11C439.8,44.3,437.9,41.2,435.4,38.6L435.4,38.6z M406.3,44c2.3-1.5,5-2.3,7.9-2.3
	c3.1,0,5.8,0.8,7.9,2.3c2.2,1.5,3.8,3.6,4.8,6.2c0.5,1.2,0.7,2.4,0.8,3.8H400c0.2-1.2,0.5-2.4,1-3.5C402.2,47.6,404,45.4,406.3,44
	L406.3,44z"/>
<path class="st0" d="M495.5,32.9c-3.3-1.9-7.2-2.8-11.5-2.8s-7.9,0.9-11.1,2.8c-2.4,1.4-4.3,3.3-5.6,5.7v-7.2h-13.4V90h14.2V55.6
	c0-2.6,0.5-4.8,1.5-6.7c1-1.9,2.4-3.3,4.2-4.3c1.8-1.1,3.9-1.6,6.2-1.6s4.5,0.5,6.2,1.6c1.8,1,3.2,2.4,4.2,4.3
	c1,1.9,1.5,4.1,1.5,6.7V90h14.2V52.3c0-4.4-0.9-8.2-2.8-11.5C501.6,37.4,498.9,34.7,495.5,32.9L495.5,32.9z"/>
<path class="st0" d="M524.3,69.9c0,6.6,1.8,11.8,5.4,15.4c3.7,3.6,8.9,5.4,15.5,5.4c1.1,0,2.3-0.1,3.6-0.2c1.3-0.1,2.5-0.3,3.5-0.4
	V77.9c-0.7,0.1-1.3,0.1-2.1,0.2c-0.7,0.1-1.2,0.1-1.7,0.1c-2.3,0-4.2-0.4-5.8-1.1c-1.5-0.7-2.5-1.8-3.3-3.1c-0.7-1.4-1-3-1-5V44
	h13.6V31.4h-13.6V18h-14.2v4.5c0,2.9-0.8,5.1-2.4,6.6c-1.6,1.5-3.8,2.3-6.7,2.3h-1.1V44h10.2L524.3,69.9L524.3,69.9z"/>
<polygon class="st0" points="249.5,191.1 264.2,191.1 264.2,158.9 298.6,158.9 298.6,145.9 264.2,145.9 264.2,123.7 303.5,123.7 
	303.5,110.8 249.5,110.8 "/>
<path class="st0" d="M347.7,133.9c-3.7-1.8-8-2.7-12.8-2.7c-4,0-7.7,0.6-11.1,1.9c-3.4,1.3-6.4,3.1-8.9,5.4c-2.5,2.2-4.3,4.9-5.4,8
	l11.6,5.6c1.1-2.7,2.8-4.8,5.1-6.4c2.4-1.6,5.1-2.5,8.2-2.5c3.3,0,5.9,0.9,7.8,2.6c2,1.6,3,3.7,3,6.3v1.9l-17.6,2.9
	c-4.6,0.7-8.5,1.9-11.5,3.7c-3,1.7-5.3,3.9-6.7,6.5c-1.5,2.5-2.2,5.4-2.2,8.6s0.8,6.4,2.5,8.9c1.7,2.5,4,4.5,7.1,5.8
	c3,1.4,6.6,2.1,10.8,2.1c3.3,0,6.2-0.4,8.9-1.3c2.7-0.9,5.1-2.2,7.2-3.9c0.9-0.7,1.6-1.5,2.4-2.3v6.2h13.5v-39c0-4.2-1-7.8-3.1-10.9
	C354.3,138.1,351.4,135.6,347.7,133.9L347.7,133.9z M343.2,174.5c-1.2,2.2-3,4-5.3,5.3c-2.2,1.2-4.9,1.8-7.8,1.8
	c-2.3,0-4.3-0.6-5.9-1.7c-1.5-1.2-2.3-2.8-2.3-4.9s0.7-3.8,2.1-5.1c1.4-1.3,3.5-2.2,6.3-2.7l14.9-2.5v2.4
	C345.2,169.8,344.6,172.3,343.2,174.5L343.2,174.5z"/>
<path class="st0" d="M420.1,135.3c-4.5-2.7-9.5-4.1-15.1-4.1c-4.6,0-8.6,0.9-12.1,2.7c-2.4,1.2-4.4,2.7-6.1,4.6v-28.9h-14.2v81.6
	H386v-6.7c1.9,2.3,4.2,4.1,7.1,5.5c3.6,1.6,7.6,2.5,11.9,2.5c5.7,0,10.8-1.3,15.3-4c4.5-2.7,8-6.4,10.7-11.1
	c2.6-4.7,3.9-9.9,3.9-15.5s-1.3-10.9-4-15.5C428.2,141.7,424.6,138,420.1,135.3L420.1,135.3z M417.9,170.9c-1.4,2.7-3.3,4.7-5.9,6.2
	s-5.4,2.3-8.7,2.3s-5.9-0.8-8.5-2.3c-2.5-1.5-4.4-3.6-5.9-6.2c-1.4-2.7-2.1-5.7-2.1-9.2s0.7-6.4,2.1-9.1c1.5-2.7,3.4-4.9,5.9-6.4
	c2.5-1.5,5.4-2.3,8.5-2.3s6.2,0.8,8.7,2.4c2.5,1.5,4.5,3.6,5.9,6.2c1.5,2.6,2.2,5.6,2.2,9.1S419.3,168.3,417.9,170.9z"/>
<path class="st0" d="M464.4,134.4c-2.2,1.3-4,3.4-5.3,6.3v-8.3h-13.4v58.7h14.2v-32.7c0-4.5,1.2-7.9,3.7-10.4
	c2.5-2.5,5.7-3.8,9.8-3.8h5.1v-12.5H475C470.9,131.8,467.4,132.7,464.4,134.4L464.4,134.4z"/>
<rect x="486.4" y="110.8" class="st0" width="14.2" height="15.1"/>
<rect x="486.4" y="132.5" class="st0" width="14.2" height="58.7"/>
<path class="st0" d="M551.2,176.8c-2.5,1.8-5.5,2.7-8.9,2.7c-3.1,0-5.9-0.8-8.4-2.3c-2.4-1.5-4.3-3.6-5.7-6.2
	c-1.4-2.7-2.1-5.7-2.1-9.2s0.7-6.5,2.1-9.2s3.3-4.7,5.7-6.2c2.5-1.5,5.3-2.3,8.4-2.3c3.3,0,6.3,0.9,8.8,2.7c2.6,1.8,4.5,4.2,5.5,7.1
	l12.5-5.4c-1.2-3.5-3.1-6.5-5.8-9.1c-2.6-2.6-5.7-4.6-9.3-6c-3.6-1.5-7.5-2.3-11.7-2.3c-5.9,0-11.2,1.3-15.9,4
	c-4.6,2.7-8.3,6.3-11,10.9s-4,9.8-4,15.6s1.3,11.1,4,15.7c2.7,4.6,6.3,8.3,11,11c4.7,2.7,10,4,15.9,4c4.3,0,8.2-0.7,11.8-2.2
	c3.6-1.5,6.7-3.6,9.3-6.1c2.6-2.7,4.5-5.6,5.7-8.9l-12.5-5.6C555.5,172.6,553.7,175,551.2,176.8L551.2,176.8z"/>
</svg>
